    <mxfile host="app.diagrams.net" agent="Mozilla/5.0 (Macintosh; Intel Mac OS X 10_15_7) AppleWebKit/605.1.15 (KHTML, like Gecko) Version/17.5 Safari/605.1.15" version="26.2.13">
  <diagram name="Страница — 1" id="BNtByEnlPUGt5s9RXdVz">
    <mxGraphModel dx="1584" dy="1064" grid="1" gridSize="10" guides="1" tooltips="1" connect="1" arrows="1" fold="1" page="1" pageScale="1" pageWidth="1920" pageHeight="1200" math="0" shadow="0">
      <root>
        <mxCell id="0" />
        <mxCell id="1" parent="0" />
        <mxCell id="5jsCZLX1w9yIyf4Q4k6B-1" value="Databases" style="strokeWidth=2;html=1;shape=mxgraph.flowchart.database;whiteSpace=wrap;fontSize=16;fontStyle=1" parent="1" vertex="1">
          <mxGeometry x="552.5" y="450" width="90" height="120" as="geometry" />
        </mxCell>
        <mxCell id="5jsCZLX1w9yIyf4Q4k6B-2" value="Database Connector" style="shape=ext;double=1;rounded=0;whiteSpace=wrap;html=1;fontSize=22;fontStyle=1" parent="1" vertex="1">
          <mxGeometry x="530" y="675" width="135" height="90" as="geometry" />
        </mxCell>
        <mxCell id="5jsCZLX1w9yIyf4Q4k6B-6" value="Backup Storage" style="shape=ext;double=1;rounded=0;whiteSpace=wrap;html=1;fontSize=23;fontStyle=1" parent="1" vertex="1">
          <mxGeometry x="850" y="430" width="140" height="100" as="geometry" />
        </mxCell>
        <mxCell id="5jsCZLX1w9yIyf4Q4k6B-7" value="Compression" style="shape=ext;double=1;rounded=0;whiteSpace=wrap;html=1;fontSize=18;fontStyle=1" parent="1" vertex="1">
          <mxGeometry x="1132.5" y="280" width="135" height="80" as="geometry" />
        </mxCell>
        <mxCell id="5jsCZLX1w9yIyf4Q4k6B-8" value="Recovery Manager" style="shape=ext;double=1;rounded=0;whiteSpace=wrap;html=1;fontSize=19;fontStyle=1" parent="1" vertex="1">
          <mxGeometry x="1132.5" y="675" width="140" height="90" as="geometry" />
        </mxCell>
        <mxCell id="5jsCZLX1w9yIyf4Q4k6B-9" value="Backup Scheduler" style="shape=ext;double=1;rounded=0;whiteSpace=wrap;html=1;fontSize=22;fontStyle=1" parent="1" vertex="1">
          <mxGeometry x="520" y="880" width="140" height="80" as="geometry" />
        </mxCell>
        <mxCell id="5jsCZLX1w9yIyf4Q4k6B-10" value="Database Manager" style="shape=ext;double=1;rounded=0;whiteSpace=wrap;html=1;fontSize=21;fontStyle=1" parent="1" vertex="1">
          <mxGeometry x="840" y="670" width="160" height="100" as="geometry" />
        </mxCell>
        <mxCell id="5jsCZLX1w9yIyf4Q4k6B-12" value="Database" style="shape=cylinder3;whiteSpace=wrap;html=1;boundedLbl=1;backgroundOutline=1;size=15;fontStyle=1;fontSize=13;" parent="1" vertex="1">
          <mxGeometry x="690" y="320" width="60" height="95" as="geometry" />
        </mxCell>
        <mxCell id="5jsCZLX1w9yIyf4Q4k6B-13" value="Database" style="shape=cylinder3;whiteSpace=wrap;html=1;boundedLbl=1;backgroundOutline=1;size=15;fontStyle=1;fontSize=14;" parent="1" vertex="1">
          <mxGeometry x="1080" y="830" width="70" height="100" as="geometry" />
        </mxCell>
        <mxCell id="5jsCZLX1w9yIyf4Q4k6B-14" value="" style="endArrow=classic;html=1;rounded=0;entryX=1;entryY=0.5;entryDx=0;entryDy=0;exitX=0;exitY=0.5;exitDx=0;exitDy=0;strokeColor=#3333FF;strokeWidth=3;align=center;verticalAlign=middle;fontFamily=Helvetica;fontSize=12;fontColor=default;labelBackgroundColor=default;endSize=7;flowAnimation=0;sourcePerimeterSpacing=0;targetPerimeterSpacing=0;" parent="1" source="5jsCZLX1w9yIyf4Q4k6B-10" target="5jsCZLX1w9yIyf4Q4k6B-2" edge="1">
          <mxGeometry width="50" height="50" relative="1" as="geometry">
            <mxPoint x="790" y="660" as="sourcePoint" />
            <mxPoint x="840" y="610" as="targetPoint" />
          </mxGeometry>
        </mxCell>
        <mxCell id="5jsCZLX1w9yIyf4Q4k6B-22" value="" style="endArrow=classic;html=1;rounded=0;entryX=0.5;entryY=1;entryDx=0;entryDy=0;exitX=0.5;exitY=0;exitDx=0;exitDy=0;fontSize=12;strokeWidth=3;targetPerimeterSpacing=0;sourcePerimeterSpacing=0;endSize=7;strokeColor=#3333FF;flowAnimation=0;" parent="1" source="5jsCZLX1w9yIyf4Q4k6B-8" target="5jsCZLX1w9yIyf4Q4k6B-7" edge="1">
          <mxGeometry width="50" height="50" relative="1" as="geometry">
            <mxPoint x="1070" y="630" as="sourcePoint" />
            <mxPoint x="1120" y="580" as="targetPoint" />
          </mxGeometry>
        </mxCell>
        <mxCell id="5jsCZLX1w9yIyf4Q4k6B-23" value="" style="endArrow=classic;html=1;rounded=0;exitX=0.5;exitY=0;exitDx=0;exitDy=0;entryX=0;entryY=0.5;entryDx=0;entryDy=0;strokeWidth=3;strokeColor=#3333FF;align=center;verticalAlign=middle;fontFamily=Helvetica;fontSize=12;fontColor=default;labelBackgroundColor=default;endSize=7;flowAnimation=0;sourcePerimeterSpacing=0;targetPerimeterSpacing=0;" parent="1" source="5jsCZLX1w9yIyf4Q4k6B-6" target="5jsCZLX1w9yIyf4Q4k6B-7" edge="1">
          <mxGeometry width="50" height="50" relative="1" as="geometry">
            <mxPoint x="970" y="590" as="sourcePoint" />
            <mxPoint x="1110" y="320" as="targetPoint" />
            <Array as="points">
              <mxPoint x="920" y="320" />
            </Array>
          </mxGeometry>
        </mxCell>
        <mxCell id="5jsCZLX1w9yIyf4Q4k6B-26" value="" style="endArrow=classic;html=1;rounded=0;entryX=0.5;entryY=1;entryDx=0;entryDy=0;entryPerimeter=0;exitX=0;exitY=0.5;exitDx=0;exitDy=0;strokeColor=#FF3333;strokeWidth=3;align=center;verticalAlign=middle;fontFamily=Helvetica;fontSize=12;fontColor=default;labelBackgroundColor=default;endSize=7;flowAnimation=0;sourcePerimeterSpacing=0;targetPerimeterSpacing=0;" parent="1" source="5jsCZLX1w9yIyf4Q4k6B-6" target="5jsCZLX1w9yIyf4Q4k6B-12" edge="1">
          <mxGeometry width="50" height="50" relative="1" as="geometry">
            <mxPoint x="630" y="580" as="sourcePoint" />
            <mxPoint x="680" y="530" as="targetPoint" />
            <Array as="points">
              <mxPoint x="720" y="480" />
            </Array>
          </mxGeometry>
        </mxCell>
        <mxCell id="5jsCZLX1w9yIyf4Q4k6B-28" value="" style="endArrow=classic;html=1;rounded=0;entryX=0.5;entryY=1;entryDx=0;entryDy=0;exitX=0.5;exitY=0;exitDx=0;exitDy=0;strokeColor=#3333FF;strokeWidth=3;align=center;verticalAlign=middle;fontFamily=Helvetica;fontSize=12;fontColor=default;labelBackgroundColor=default;endSize=7;flowAnimation=0;sourcePerimeterSpacing=0;targetPerimeterSpacing=0;" parent="1" source="5jsCZLX1w9yIyf4Q4k6B-10" target="5jsCZLX1w9yIyf4Q4k6B-6" edge="1">
          <mxGeometry width="50" height="50" relative="1" as="geometry">
            <mxPoint x="890" y="600" as="sourcePoint" />
            <mxPoint x="940" y="550" as="targetPoint" />
          </mxGeometry>
        </mxCell>
        <mxCell id="5jsCZLX1w9yIyf4Q4k6B-29" value="" style="endArrow=classic;html=1;rounded=0;entryX=1;entryY=0.5;entryDx=0;entryDy=0;exitX=0;exitY=0.5;exitDx=0;exitDy=0;strokeColor=#3333FF;strokeWidth=3;align=center;verticalAlign=middle;fontFamily=Helvetica;fontSize=12;fontColor=default;labelBackgroundColor=default;endSize=7;flowAnimation=0;sourcePerimeterSpacing=0;targetPerimeterSpacing=0;" parent="1" source="5jsCZLX1w9yIyf4Q4k6B-8" target="5jsCZLX1w9yIyf4Q4k6B-10" edge="1">
          <mxGeometry width="50" height="50" relative="1" as="geometry">
            <mxPoint x="910" y="690" as="sourcePoint" />
            <mxPoint x="960" y="640" as="targetPoint" />
          </mxGeometry>
        </mxCell>
        <mxCell id="5jsCZLX1w9yIyf4Q4k6B-30" value="" style="endArrow=classic;html=1;rounded=0;entryX=0;entryY=0.5;entryDx=0;entryDy=0;entryPerimeter=0;exitX=0.75;exitY=1;exitDx=0;exitDy=0;strokeColor=#FF3333;strokeWidth=3;align=center;verticalAlign=middle;fontFamily=Helvetica;fontSize=12;fontColor=default;labelBackgroundColor=default;endSize=7;flowAnimation=0;sourcePerimeterSpacing=0;targetPerimeterSpacing=0;" parent="1" source="5jsCZLX1w9yIyf4Q4k6B-10" target="5jsCZLX1w9yIyf4Q4k6B-13" edge="1">
          <mxGeometry width="50" height="50" relative="1" as="geometry">
            <mxPoint x="830" y="830" as="sourcePoint" />
            <mxPoint x="880" y="780" as="targetPoint" />
            <Array as="points">
              <mxPoint x="960" y="880" />
            </Array>
          </mxGeometry>
        </mxCell>
        <mxCell id="5jsCZLX1w9yIyf4Q4k6B-34" value="" style="endArrow=classic;html=1;rounded=0;exitX=0.5;exitY=0;exitDx=0;exitDy=0;entryX=0.5;entryY=1;entryDx=0;entryDy=0;entryPerimeter=0;strokeColor=#FF3333;strokeWidth=3;align=center;verticalAlign=middle;fontFamily=Helvetica;fontSize=12;fontColor=default;labelBackgroundColor=default;endSize=7;flowAnimation=0;sourcePerimeterSpacing=0;targetPerimeterSpacing=0;" parent="1" source="5jsCZLX1w9yIyf4Q4k6B-2" target="5jsCZLX1w9yIyf4Q4k6B-1" edge="1">
          <mxGeometry width="50" height="50" relative="1" as="geometry">
            <mxPoint x="820" y="670" as="sourcePoint" />
            <mxPoint x="870" y="620" as="targetPoint" />
          </mxGeometry>
        </mxCell>
        <mxCell id="5jsCZLX1w9yIyf4Q4k6B-36" value="" style="rounded=0;whiteSpace=wrap;html=1;fillColor=none;" parent="1" vertex="1">
          <mxGeometry x="280" y="200" width="1240" height="880" as="geometry" />
        </mxCell>
        <mxCell id="5jsCZLX1w9yIyf4Q4k6B-37" value="Backup Architecture&amp;nbsp;" style="text;html=1;align=center;verticalAlign=middle;whiteSpace=wrap;rounded=0;fontSize=32;fontStyle=1" parent="1" vertex="1">
          <mxGeometry x="630" y="130" width="570" height="70" as="geometry" />
        </mxCell>
        <mxCell id="5jsCZLX1w9yIyf4Q4k6B-38" value="Loging" style="shape=ext;double=1;rounded=0;whiteSpace=wrap;html=1;fontSize=22;fontStyle=1" parent="1" vertex="1">
          <mxGeometry x="1660" y="600" width="120" height="80" as="geometry" />
        </mxCell>
        <mxCell id="5jsCZLX1w9yIyf4Q4k6B-41" value="" style="endArrow=classic;html=1;rounded=0;entryX=1;entryY=0.5;entryDx=0;entryDy=0;exitX=0;exitY=0.5;exitDx=0;exitDy=0;strokeColor=#00CC00;strokeWidth=3;align=center;verticalAlign=middle;fontFamily=Helvetica;fontSize=12;fontColor=default;labelBackgroundColor=default;endSize=7;flowAnimation=0;sourcePerimeterSpacing=0;targetPerimeterSpacing=0;" parent="1" source="5jsCZLX1w9yIyf4Q4k6B-38" target="5jsCZLX1w9yIyf4Q4k6B-36" edge="1">
          <mxGeometry width="50" height="50" relative="1" as="geometry">
            <mxPoint x="1690" y="600" as="sourcePoint" />
            <mxPoint x="1740" y="550" as="targetPoint" />
          </mxGeometry>
        </mxCell>
        <mxCell id="BU93h4sQn44JJ5Io_3M0-1" value="" style="endArrow=classic;html=1;rounded=0;exitX=1;exitY=0.5;exitDx=0;exitDy=0;entryX=0.25;entryY=1;entryDx=0;entryDy=0;strokeColor=#3333FF;strokeWidth=3;align=center;verticalAlign=middle;fontFamily=Helvetica;fontSize=12;fontColor=default;labelBackgroundColor=default;endSize=7;flowAnimation=0;sourcePerimeterSpacing=0;targetPerimeterSpacing=0;" edge="1" parent="1" source="5jsCZLX1w9yIyf4Q4k6B-9" target="5jsCZLX1w9yIyf4Q4k6B-10">
          <mxGeometry width="50" height="50" relative="1" as="geometry">
            <mxPoint x="810" y="630" as="sourcePoint" />
            <mxPoint x="860" y="580" as="targetPoint" />
            <Array as="points">
              <mxPoint x="880" y="920" />
            </Array>
          </mxGeometry>
        </mxCell>
      </root>
    </mxGraphModel>
  </diagram>
</mxfile>
